<svg xmlns="http://www.w3.org/2000/svg" width="1200" height="630" viewBox="0 0 1200 630" role="img" aria-labelledby="title desc">
  <title id="title">Simeon Siaka — Cloud Infrastructure and DevOps Engineer</title>
  <desc id="desc">Branded social sharing image for Simeon on the Cloud.</desc>
  <defs>
    <pattern id="grid" width="48" height="48" patternUnits="userSpaceOnUse">
      <path d="M48 0H0V48" fill="none" stroke="#8fb5ad" stroke-opacity="0.12"/>
    </pattern>
    <linearGradient id="glow" x1="0" y1="0" x2="1" y2="1">
      <stop offset="0" stop-color="#177f79"/>
      <stop offset="1" stop-color="#0f2f4b"/>
    </linearGradient>
  </defs>
  <rect width="1200" height="630" fill="#071d30"/>
  <rect width="1200" height="630" fill="url(#grid)"/>
  <circle cx="1080" cy="92" r="230" fill="#e98142" opacity="0.96"/>
  <circle cx="1050" cy="650" r="330" fill="#177f79" opacity="0.82"/>
  <path d="M810 155 C900 155 900 255 980 255 S1060 355 1135 355" fill="none" stroke="#fffdf8" stroke-opacity="0.38" stroke-width="3" stroke-dasharray="10 12"/>
  <g transform="translate(820 128)">
    <rect x="0" y="0" width="150" height="64" rx="18" fill="#fffdf8"/>
    <circle cx="22" cy="22" r="6" fill="#177f79"/>
    <text x="75" y="39" text-anchor="middle" fill="#11243a" font-family="Arial, sans-serif" font-size="18" font-weight="700">CloudFront</text>
    <rect x="150" y="96" width="150" height="64" rx="18" fill="#fffdf8"/>
    <circle cx="172" cy="118" r="6" fill="#e98142"/>
    <text x="225" y="135" text-anchor="middle" fill="#11243a" font-family="Arial, sans-serif" font-size="18" font-weight="700">Terraform</text>
    <rect x="300" y="192" width="150" height="64" rx="18" fill="#fffdf8"/>
    <circle cx="322" cy="214" r="6" fill="#177f79"/>
    <text x="375" y="231" text-anchor="middle" fill="#11243a" font-family="Arial, sans-serif" font-size="18" font-weight="700">OIDC + IAM</text>
  </g>
  <g transform="translate(72 72)">
    <circle cx="42" cy="42" r="42" fill="#fffdf8"/>
    <text x="42" y="52" text-anchor="middle" fill="#0f2f4b" font-family="Georgia, serif" font-size="27" font-style="italic" font-weight="700">SS</text>
    <text x="0" y="158" fill="#83d2c5" font-family="Courier New, monospace" font-size="19" letter-spacing="3">SIMEON ON THE CLOUD</text>
    <text x="0" y="252" fill="#fffdf8" font-family="Georgia, serif" font-size="78" font-weight="700">Simeon Siaka</text>
    <text x="0" y="317" fill="#f5ddca" font-family="Arial, sans-serif" font-size="31" font-weight="700">Cloud Infrastructure &amp; DevOps Engineer</text>
    <text x="0" y="378" fill="#c8d7d2" font-family="Arial, sans-serif" font-size="23">AWS architecture · Terraform · Linux · Secure CI/CD</text>
    <g transform="translate(0 432)">
      <rect width="590" height="74" rx="20" fill="url(#glow)" stroke="#83d2c5" stroke-opacity="0.42"/>
      <text x="28" y="31" fill="#83d2c5" font-family="Courier New, monospace" font-size="15" letter-spacing="2">PORTFOLIO</text>
      <text x="28" y="56" fill="#fffdf8" font-family="Arial, sans-serif" font-size="20" font-weight="700">simeonprimordial.github.io/SimeonOnTheCloudSpace/</text>
    </g>
  </g>
</svg>
